HIERARCHY
ROOT Hips
{
	OFFSET -0.179506 -22.333345 2.821913
	CHANNELS 6 Xposition Yposition Zposition Zrotation Yrotation Xrotation 
	JOINT LeftUpLeg
	{
		OFFSET 6.951974 -9.140623 -0.681533
		CHANNELS 3 Zrotation Yrotation Xrotation
		JOINT LeftLeg
		{
			OFFSET 3.427654 -37.519855 -0.449580
			CHANNELS 3 Zrotation Yrotation Xrotation
			JOINT LeftFoot
			{
				OFFSET -1.359570 -39.796059 -4.369333
				CHANNELS 3 Zrotation Yrotation Xrotation
				JOINT LeftToe
				{
					OFFSET 2.635814 -5.579078 11.928840
					CHANNELS 3 Zrotation Yrotation Xrotation
					End Site
					{
						OFFSET 0.000000 0.000000 0.000000
					}
				}
			}
		}
	}
	JOINT RightUpLeg
	{
		OFFSET -6.767048 -9.052170 -0.431982
		CHANNELS 3 Zrotation Yrotation Xrotation
		JOINT RightLeg
		{
			OFFSET -3.829005 -38.256897 -0.885003
			CHANNELS 3 Zrotation Yrotation Xrotation
			JOINT RightFoot
			{
				OFFSET 1.577377 -39.841461 -4.231180
				CHANNELS 3 Zrotation Yrotation Xrotation
				JOINT RightToe
				{
					OFFSET -2.537174 -4.814398 12.334795
					CHANNELS 3 Zrotation Yrotation Xrotation
					End Site
					{
						OFFSET 0.000000 0.000000 0.000000
					}
				}
			}
		}
	}
	JOINT Spine
	{
		OFFSET -0.253288 10.896323 -2.669631
		CHANNELS 3 Zrotation Yrotation Xrotation
		JOINT Spine1
		{
			OFFSET 0.548704 13.518043 0.109247
			CHANNELS 3 Zrotation Yrotation Xrotation
			JOINT Spine2
			{
				OFFSET 0.145701 5.292222 2.542457
				CHANNELS 3 Zrotation Yrotation Xrotation
				JOINT Neck
				{
					OFFSET -0.277840 21.387037 -4.285703
					CHANNELS 3 Zrotation Yrotation Xrotation
					JOINT Head
					{
						OFFSET 0.515184 6.496960 5.134897
						CHANNELS 3 Zrotation Yrotation Xrotation
						End Site
						{
							OFFSET 0.000000 0.000000 0.000000
						}
					}
				}
				JOINT LeftShoulder
				{
					OFFSET 7.884473 12.174932 -3.408961
					CHANNELS 3 Zrotation Yrotation Xrotation
					JOINT LeftArm
					{
						OFFSET 9.097692 3.046888 -0.886815
						CHANNELS 3 Zrotation Yrotation Xrotation
						JOINT LeftForeArm
						{
							OFFSET 25.961220 -1.277207 -2.745643
							CHANNELS 3 Zrotation Yrotation Xrotation
							JOINT LeftHand
							{
								OFFSET 24.923361 0.898606 -0.117091
								CHANNELS 3 Zrotation Yrotation Xrotation
								End Site
								{
									OFFSET 0.000000 0.000000 0.000000
								}
							}
						}
					}
				}
				JOINT RightShoulder
				{
					OFFSET -8.175920 11.883285 -3.861528
					CHANNELS 3 Zrotation Yrotation Xrotation
					JOINT RightArm
					{
						OFFSET -9.601238 3.255117 -0.914307
						CHANNELS 3 Zrotation Yrotation Xrotation
						JOINT RightForeArm
						{
							OFFSET -25.374195 -1.332924 -2.140099
							CHANNELS 3 Zrotation Yrotation Xrotation
							JOINT RightHand
							{
								OFFSET -25.529810 0.777228 -0.555919
								CHANNELS 3 Zrotation Yrotation Xrotation
								End Site
								{
									OFFSET 0.000000 0.000000 0.000000
								}
							}
						}
					}
				}
			}
		}
	}
}
MOTION
Frames: 15
Frame Time: 0.033333
-17.563818 -56.679745 88.932175 -122.195056 2.366119 82.914176 16.410357 5.849662 -7.367257 -9.211879 -0.633531 35.687121 1.635761 10.698007 -31.443432 nan nan nan -16.826520 -12.832432 -19.716061 2.475099 -13.734818 45.416720 4.699289 -3.905498 -17.715248 nan nan nan -4.336876 3.444502 10.435722 8.894162 -3.911532 9.450936 3.462141 0.184357 -1.883402 5.240201 -14.498381 17.787038 5.392325 -16.174674 12.514286 -8.461365 -13.588096 -1.573055 -59.052090 -50.422875 27.640582 135.138985 -71.642195 -106.583810 -0.130538 -17.384504 -6.049065 13.750729 9.958208 -6.938339 28.150512 20.124329 -7.470014 -79.309838 47.736150 -59.608288 -0.577566 7.076401 -2.320209 
-17.496597 -57.007965 88.891220 -122.414319 2.352004 82.895643 16.349192 5.899656 -7.592099 -9.384421 -0.401909 36.026418 1.830289 10.721519 -31.586224 nan nan nan -16.507682 -13.011638 -19.906939 2.644798 -13.987902 46.727743 4.926650 -3.369420 -17.730495 nan nan nan -4.470564 3.551057 10.306170 8.916992 -3.900346 9.659196 3.450473 0.112497 -1.877388 5.242298 -14.451433 17.789775 5.336279 -16.120247 12.533347 -8.535762 -13.650646 -1.704926 -59.210554 -50.200847 27.708566 135.142092 -71.576467 -106.669404 -0.115877 -17.441799 -5.656246 13.945880 10.042473 -7.224738 28.212742 20.125816 -7.136034 -79.189225 47.963182 -59.558331 -0.346990 7.093365 -2.323992 
-17.441275 -57.313751 88.860641 -122.634898 2.325793 82.870407 16.237538 5.958129 -7.794107 -9.439414 -0.181447 36.329041 2.002164 10.699769 -31.708685 nan nan nan -16.160420 -13.098824 -20.007723 2.804084 -14.175959 47.783751 5.109825 -2.900996 -17.713766 nan nan nan -4.574267 3.669985 10.316073 8.912835 -3.833399 9.546096 3.452400 0.041725 -1.752531 5.180062 -14.466617 17.813733 5.324985 -16.087106 12.566891 -8.636416 -13.675988 -1.841103 -59.513413 -49.931502 27.876293 135.129169 -71.530087 -106.757374 -0.383627 -17.494159 -5.565857 14.101218 10.009709 -7.480147 28.380043 20.110398 -6.806766 -79.178793 48.217230 -59.512027 -0.261634 7.101027 -2.276908 
-17.406334 -57.608078 88.812935 -122.877648 2.315601 82.822018 16.106188 6.002010 -7.960027 -9.357321 0.076821 36.616356 2.184484 10.650622 -31.824436 nan nan nan -15.836168 -13.095065 -20.045891 3.013662 -14.394079 48.655366 5.281204 -2.412010 -17.788341 nan nan nan -4.593851 3.675944 10.260739 8.843136 -3.849283 9.755728 3.355925 0.134579 -1.859531 5.234167 -14.302941 17.919792 5.335092 -16.204166 12.509154 -8.734237 -13.595906 -1.914314 -59.839842 -49.742659 28.052707 135.165915 -71.507174 -106.833351 -0.712731 -17.625508 -5.268240 14.170056 10.114212 -7.325568 28.561110 19.985933 -6.729556 -79.383906 48.398025 -59.726921 -0.377809 7.311424 -2.255336 
-17.378206 -57.891792 88.735901 -123.126549 2.298102 82.835966 15.964476 5.993215 -8.197954 -9.320297 0.327726 36.913174 2.367974 10.756535 -31.917643 nan nan nan -15.522482 -13.043718 -20.144086 3.359883 -14.519491 49.378049 5.534423 -1.920018 -17.955872 nan nan nan -4.582602 3.666125 10.104084 8.745444 -3.877757 9.977804 3.224973 0.198447 -1.976307 5.181219 -14.211230 18.037296 5.316691 -16.187379 12.648269 -8.879997 -13.447171 -1.879646 -60.100209 -49.635539 28.154558 135.586533 -71.519451 -107.351950 -0.946733 -17.637173 -4.812519 14.344330 10.128306 -7.000182 28.602735 20.086559 -6.847988 -79.497620 48.714631 -59.950890 -0.345948 7.376269 -2.001737 
-17.373415 -58.158970 88.661606 -123.353559 2.270564 82.851489 15.799867 5.901538 -8.469235 -9.316317 0.570502 37.281611 2.464552 10.935833 -32.015340 nan nan nan -15.230217 -13.010100 -20.202690 3.731635 -14.584967 49.947090 5.944155 -1.372475 -18.066800 nan nan nan -4.557508 3.714736 10.000692 8.662295 -3.882527 9.957042 3.155804 0.124346 -1.974986 4.914098 -14.261723 18.210423 5.333288 -16.029585 12.834501 -9.174783 -13.335664 -1.876915 -60.258883 -49.417886 28.227599 136.061673 -71.559760 -107.970803 -0.982640 -17.603178 -4.474709 14.588739 10.111413 -6.831309 28.567729 20.218262 -6.815066 -79.483670 49.111196 -60.137153 -0.218443 7.436866 -1.764834 
-17.374882 -58.432922 88.590324 -123.548153 2.224154 82.803201 15.607740 5.743342 -8.706170 -9.331642 0.817595 37.709388 2.538853 11.097410 -32.154163 nan nan nan -14.992630 -12.964887 -20.132028 4.128721 -14.593112 50.342646 6.238124 -0.834924 -18.166206 nan nan nan -4.539526 3.752627 9.980017 8.570361 -3.901988 9.990296 3.088088 0.099139 -1.961573 4.780496 -14.313380 18.204070 5.350201 -15.872574 12.999489 -9.387315 -13.248080 -1.910280 -60.529938 -49.247917 28.400073 136.276099 -71.517787 -108.256825 -1.102658 -17.659454 -4.326851 14.748069 10.110005 -6.749951 28.611056 20.287450 -6.705322 -79.565059 49.353171 -60.225163 -0.012051 7.586262 -1.694483 
-17.354046 -58.691452 88.517540 -123.740567 2.185717 82.764195 15.437340 5.590451 -8.960520 -9.364863 1.051345 38.150876 2.618907 11.338921 -32.302811 nan nan nan -14.733857 -12.768229 -20.022939 4.652993 -14.546813 50.519386 6.359119 -0.527337 -18.374814 nan nan nan -4.536248 3.795236 9.902680 8.481084 -3.959612 10.232418 2.973637 0.112655 -2.067510 4.772737 -14.302889 18.045307 5.270998 -15.818968 13.274439 -9.508432 -13.120351 -1.974417 -60.924360 -49.121680 28.702518 136.492510 -71.404994 -108.425605 -1.521930 -17.646482 -4.281169 14.895701 10.092618 -6.786136 28.767869 20.331746 -6.387575 -79.666490 49.456847 -60.243739 0.142561 7.572314 -1.909008 
-17.341599 -58.919464 88.445549 -123.989815 2.171307 82.697318 15.291037 5.527769 -9.120395 -9.323002 1.270152 38.529142 2.703179 11.538106 -32.452088 nan nan nan -14.411452 -12.489986 -19.894606 5.079490 -14.499776 50.624265 6.410543 -0.210795 -18.585242 nan nan nan -4.488796 3.871505 9.718723 8.432918 -3.962407 10.686059 2.901340 0.003108 -2.314187 4.617282 -14.130362 18.154874 5.195751 -15.913549 13.268728 -9.761915 -13.015551 -1.957043 -61.065454 -48.942861 28.708066 136.965786 -71.309180 -108.931525 -2.275561 -17.758785 -3.939884 14.887833 10.255478 -6.709895 28.991134 20.304699 -6.168257 -79.825598 49.531156 -60.352552 0.399253 7.708999 -1.975826 
-17.340790 -59.132301 88.371330 -124.229376 2.132027 82.563822 15.137579 5.441177 -9.168731 -9.267139 1.497564 38.842923 2.837884 11.731539 -32.567739 nan nan nan -14.155852 -12.288180 -19.702492 5.435823 -14.462327 50.731966 6.370445 0.084730 -18.793606 nan nan nan -4.509910 3.964189 9.572332 8.415093 -3.943796 11.090313 2.897324 -0.092357 -2.449479 4.492180 -14.003925 18.151549 5.085603 -15.930630 13.294122 -10.010051 -13.031564 -1.889368 -60.981019 -48.823482 28.563035 137.429365 -71.200587 -109.623270 -2.540126 -17.760820 -3.459490 14.775199 10.389765 -6.595003 29.184946 20.257439 -6.098446 -79.999284 49.698906 -60.600767 0.536225 7.776844 -1.892834 
-17.325508 -59.337936 88.295174 -124.413355 2.091865 82.458017 14.975335 5.310187 -9.295520 -9.242570 1.717399 39.200162 2.918509 12.016382 -32.692407 nan nan nan -13.918117 -12.059449 -19.492996 5.778268 -14.450130 50.711175 6.231896 0.130934 -19.113975 nan nan nan -4.584316 4.015056 9.555287 8.345254 -3.952921 11.154156 2.897800 -0.038030 -2.400680 4.455617 -14.122455 18.016111 5.033608 -15.804583 13.483746 -10.130838 -13.204219 -1.829108 -60.988573 -48.691325 28.624146 137.453406 -71.068482 -109.789841 -2.017378 -17.736102 -3.179804 14.858290 10.390939 -6.676446 29.266354 20.138101 -5.998750 -80.006484 50.007790 -60.735321 0.469607 7.813169 -1.684928 
-17.299467 -59.540936 88.208565 -124.655560 2.073350 82.419405 14.836213 5.207344 -9.484916 -9.214281 1.946867 39.564338 2.972305 12.252625 -32.882511 nan nan nan -13.618629 -11.718764 -19.402482 6.004088 -14.404744 50.684131 6.137134 0.138199 -19.479056 nan nan nan -4.550153 4.030279 9.530615 8.245034 -3.940339 11.215599 2.843239 -0.042176 -2.469245 4.377431 -14.078076 17.999458 5.015801 -15.695065 13.602989 -10.321315 -13.129227 -1.900172 -61.264864 -48.459497 28.875185 137.594582 -70.972092 -110.004715 -2.115723 -17.825240 -3.063787 14.973903 10.416819 -6.622246 29.383239 20.177803 -5.840855 -80.069520 50.184107 -60.768614 0.538605 7.911988 -1.497098 
-17.271025 -59.726952 88.117210 -124.908728 2.058666 82.307459 14.715441 5.136790 -9.592764 -9.185915 2.120356 39.949637 3.082985 12.465898 -33.024405 nan nan nan -13.332177 -11.406947 -19.259628 6.107617 -14.362358 50.676218 5.962332 0.092962 -19.817280 nan nan nan -4.480652 4.045688 9.531718 8.153733 -3.902300 11.413028 2.761022 -0.051906 -2.611632 4.377354 -13.953981 17.994644 4.959623 -15.668563 13.562617 -10.463529 -12.990118 -1.955577 -61.516195 -48.281694 29.030182 138.036600 -70.921616 -110.491219 -2.407735 -17.865878 -3.141299 14.946316 10.442596 -6.546642 29.666255 20.190820 -5.648978 -80.304913 50.329035 -60.926474 0.475819 7.966736 -1.650278 
-17.239363 -59.897278 88.048271 -125.087888 2.110230 82.209095 14.640632 5.017879 -9.716307 -9.135922 2.217057 40.287324 3.143196 12.699823 -33.113353 nan nan nan -13.029453 -11.189468 -19.035731 6.173587 -14.422726 50.504400 5.704359 -0.059227 -20.146763 nan nan nan -4.493743 4.061210 9.506664 8.132718 -3.900851 11.437737 2.766672 0.087308 -2.510482 4.393037 -14.088461 17.961240 4.970899 -15.585838 13.546742 -10.583950 -13.164347 -1.851700 -61.744476 -48.145448 29.091594 138.399826 -70.864737 -110.852452 -2.292106 -17.741521 -3.155262 14.978991 10.458466 -6.728513 29.792183 19.888794 -5.510454 -80.542714 50.665227 -61.242169 0.458333 8.002942 -1.874340 
-17.212603 -60.054115 87.984489 -125.220040 2.123538 82.178868 14.521404 4.866932 -9.928507 -8.989768 2.382670 40.629199 3.286537 12.866678 -33.178250 nan nan nan -12.768609 -11.082140 -18.860303 6.095090 -14.440381 50.268666 5.490840 -0.169001 -20.433842 nan nan nan -4.524894 4.152992 9.423849 8.104163 -3.930221 11.321004 2.789901 0.132027 -2.337942 4.238200 -14.245440 18.092821 5.098527 -15.425835 13.506856 -10.723708 -13.292824 -1.744872 -62.083537 -47.961337 29.200210 138.675022 -70.846691 -111.071505 -2.495630 -17.610238 -3.194323 15.122424 10.427816 -6.815842 29.827893 19.691399 -5.458663 -80.760649 51.012692 -61.481840 0.858612 8.066014 -1.707730 
